<svg width="147" height="20" viewBox="0 0 147 20" fill="none" xmlns="http://www.w3.org/2000/svg">
<rect y="11" width="14.67" height="3" rx="1.5" fill="#21B6B7"/>
<rect y="16" width="22" height="3" rx="1.5" fill="#21B6B7"/>
<rect y="6" width="7.33" height="3" rx="1.5" fill="#21B6B7"/>
<path d="M28.64 19C28.4133 19 28.2333 18.94 28.1 18.82C27.9667 18.6867 27.8867 18.5267 27.86 18.34L25.68 5.56C25.6667 5.52 25.66 5.47333 25.66 5.42C25.66 5.31333 25.7 5.22 25.78 5.14C25.8733 5.04667 25.9733 5 26.08 5H28.56C28.9333 5 29.14 5.14667 29.18 5.44L30.48 13.24L31.92 8.64C32.0667 8.28 32.2867 8.1 32.58 8.1H34.02C34.3533 8.1 34.5733 8.28 34.68 8.64L36.12 13.24L37.42 5.44C37.46 5.14667 37.6667 5 38.04 5H40.52C40.64 5 40.74 5.04667 40.82 5.14C40.9133 5.22 40.96 5.31333 40.96 5.42L40.94 5.56L38.76 18.34C38.7333 18.5267 38.6467 18.6867 38.5 18.82C38.3667 18.94 38.1933 19 37.98 19H36.08C35.8667 19 35.7 18.9467 35.58 18.84C35.46 18.7333 35.3733 18.6133 35.32 18.48L33.3 12.76L31.28 18.48C31.16 18.8267 30.9133 19 30.54 19H28.64ZM47.3695 19.2C45.7162 19.2 44.4429 18.8067 43.5495 18.02C42.6562 17.2333 42.1695 16.1267 42.0895 14.7C42.0762 14.5267 42.0695 14.2267 42.0695 13.8C42.0695 13.3733 42.0762 13.0733 42.0895 12.9C42.1695 11.4867 42.6695 10.3867 43.5895 9.6C44.5095 8.8 45.7695 8.4 47.3695 8.4C48.9829 8.4 50.2495 8.8 51.1695 9.6C52.0895 10.3867 52.5895 11.4867 52.6695 12.9C52.6829 13.0733 52.6895 13.3733 52.6895 13.8C52.6895 14.2267 52.6829 14.5267 52.6695 14.7C52.5895 16.1267 52.1029 17.2333 51.2095 18.02C50.3162 18.8067 49.0362 19.2 47.3695 19.2ZM47.3695 16.76C47.9562 16.76 48.3895 16.5867 48.6695 16.24C48.9495 15.88 49.1095 15.3333 49.1495 14.6C49.1629 14.4667 49.1695 14.2 49.1695 13.8C49.1695 13.4 49.1629 13.1333 49.1495 13C49.1095 12.28 48.9429 11.74 48.6495 11.38C48.3695 11.02 47.9429 10.84 47.3695 10.84C46.2629 10.84 45.6762 11.56 45.6095 13L45.5895 13.8L45.6095 14.6C45.6362 15.3333 45.7895 15.88 46.0695 16.24C46.3629 16.5867 46.7962 16.76 47.3695 16.76ZM55.1761 19C55.0294 19 54.9094 18.9533 54.8161 18.86C54.7228 18.7667 54.6761 18.6467 54.6761 18.5V9.1C54.6761 8.95333 54.7228 8.83333 54.8161 8.74C54.9094 8.64667 55.0294 8.6 55.1761 8.6H57.4761C57.6228 8.6 57.7428 8.65333 57.8361 8.76C57.9428 8.85333 57.9961 8.96667 57.9961 9.1V9.9C58.7294 9.03333 59.7161 8.6 60.9561 8.6H61.8361C61.9828 8.6 62.1028 8.64667 62.1961 8.74C62.2894 8.83333 62.3361 8.95333 62.3361 9.1V11.16C62.3361 11.2933 62.2894 11.4133 62.1961 11.52C62.1028 11.6133 61.9828 11.66 61.8361 11.66H59.8961C59.3494 11.66 58.9228 11.8133 58.6161 12.12C58.3228 12.4133 58.1761 12.8333 58.1761 13.38V18.5C58.1761 18.6467 58.1228 18.7667 58.0161 18.86C57.9228 18.9533 57.8028 19 57.6561 19H55.1761ZM64.2581 19C64.1248 19 64.0048 18.9533 63.8981 18.86C63.8048 18.7533 63.7581 18.6333 63.7581 18.5V5.3C63.7581 5.15333 63.8048 5.03333 63.8981 4.94C64.0048 4.84667 64.1248 4.8 64.2581 4.8H66.6181C66.7648 4.8 66.8848 4.84667 66.9781 4.94C67.0715 5.03333 67.1181 5.15333 67.1181 5.3V18.5C67.1181 18.6467 67.0715 18.7667 66.9781 18.86C66.8848 18.9533 66.7648 19 66.6181 19H64.2581ZM73.3608 19.2C72.0541 19.2 71.0341 18.7933 70.3008 17.98C69.5808 17.1533 69.1874 15.9933 69.1208 14.5L69.1008 13.8L69.1208 13.08C69.1741 11.64 69.5674 10.5 70.3008 9.66C71.0474 8.82 72.0674 8.4 73.3608 8.4C74.5741 8.4 75.5541 8.79333 76.3008 9.58V5.3C76.3008 5.15333 76.3474 5.03333 76.4408 4.94C76.5341 4.84667 76.6541 4.8 76.8008 4.8H79.2408C79.3874 4.8 79.5074 4.84667 79.6008 4.94C79.6941 5.03333 79.7408 5.15333 79.7408 5.3V18.5C79.7408 18.6333 79.6941 18.7533 79.6008 18.86C79.5074 18.9533 79.3874 19 79.2408 19H76.9808C76.8474 19 76.7274 18.9533 76.6208 18.86C76.5274 18.7533 76.4808 18.6333 76.4808 18.5V17.86C75.7474 18.7533 74.7074 19.2 73.3608 19.2ZM74.4608 16.52C75.0608 16.52 75.5074 16.3333 75.8008 15.96C76.0941 15.5733 76.2608 15.08 76.3008 14.48C76.3141 14.3067 76.3208 14.0533 76.3208 13.72C76.3208 13.4 76.3141 13.1533 76.3008 12.98C76.2741 12.4333 76.1074 11.98 75.8008 11.62C75.4941 11.26 75.0474 11.08 74.4608 11.08C73.8341 11.08 73.3808 11.2667 73.1008 11.64C72.8341 12.0133 72.6808 12.5267 72.6408 13.18C72.6274 13.3133 72.6208 13.52 72.6208 13.8C72.6208 14.08 72.6274 14.2867 72.6408 14.42C72.6808 15.0733 72.8341 15.5867 73.1008 15.96C73.3808 16.3333 73.8341 16.52 74.4608 16.52Z" fill="#B9C9D1"/>
<path d="M87.0758 19C86.9424 19 86.8224 18.9533 86.7158 18.86C86.6224 18.7533 86.5758 18.6333 86.5758 18.5V5.5C86.5758 5.35333 86.6224 5.23333 86.7158 5.14C86.8224 5.04667 86.9424 5 87.0758 5H92.5158C94.2624 5 95.6224 5.4 96.5958 6.2C97.5824 6.98667 98.0758 8.10667 98.0758 9.56C98.0758 10.4933 97.8558 11.2867 97.4158 11.94C96.9758 12.5933 96.3691 13.0933 95.5958 13.44L98.3358 18.36C98.3758 18.44 98.3958 18.5133 98.3958 18.58C98.3958 18.6867 98.3491 18.7867 98.2558 18.88C98.1758 18.96 98.0824 19 97.9758 19H95.3158C94.9291 19 94.6558 18.82 94.4958 18.46L92.2158 14.06H90.1758V18.5C90.1758 18.6467 90.1224 18.7667 90.0158 18.86C89.9224 18.9533 89.8024 19 89.6558 19H87.0758ZM92.4758 11.22C93.0891 11.22 93.5558 11.0733 93.8758 10.78C94.1958 10.4733 94.3558 10.0533 94.3558 9.52C94.3558 8.98667 94.1958 8.56667 93.8758 8.26C93.5691 7.94 93.1024 7.78 92.4758 7.78H90.1758V11.22H92.4758ZM103.304 19.2C102.597 19.2 101.951 19.0667 101.364 18.8C100.791 18.52 100.337 18.1467 100.004 17.68C99.6839 17.2 99.5239 16.6733 99.5239 16.1C99.5239 15.18 99.8972 14.44 100.644 13.88C101.404 13.32 102.444 12.9333 103.764 12.72L106.264 12.34V12.06C106.264 11.5533 106.157 11.18 105.944 10.94C105.731 10.7 105.371 10.58 104.864 10.58C104.557 10.58 104.304 10.6333 104.104 10.74C103.904 10.8467 103.697 10.9933 103.484 11.18C103.297 11.34 103.157 11.4467 103.064 11.5C103.024 11.6067 102.951 11.66 102.844 11.66H100.664C100.531 11.66 100.417 11.62 100.324 11.54C100.244 11.4467 100.211 11.34 100.224 11.22C100.237 10.86 100.411 10.46 100.744 10.02C101.091 9.58 101.611 9.2 102.304 8.88C103.011 8.56 103.877 8.4 104.904 8.4C106.544 8.4 107.757 8.76667 108.544 9.5C109.331 10.22 109.724 11.1933 109.724 12.42V18.5C109.724 18.6333 109.677 18.7533 109.584 18.86C109.491 18.9533 109.371 19 109.224 19H106.904C106.771 19 106.651 18.9533 106.544 18.86C106.451 18.7533 106.404 18.6333 106.404 18.5V17.8C106.111 18.2133 105.697 18.5533 105.164 18.82C104.644 19.0733 104.024 19.2 103.304 19.2ZM104.244 16.92C104.857 16.92 105.351 16.72 105.724 16.32C106.111 15.92 106.304 15.3333 106.304 14.56V14.28L104.604 14.58C103.404 14.7933 102.804 15.2133 102.804 15.84C102.804 16.1733 102.944 16.44 103.224 16.64C103.504 16.8267 103.844 16.92 104.244 16.92ZM112.481 19C112.334 19 112.214 18.9533 112.121 18.86C112.027 18.7667 111.981 18.6467 111.981 18.5V9.1C111.981 8.95333 112.027 8.83333 112.121 8.74C112.214 8.64667 112.334 8.6 112.481 8.6H114.781C114.927 8.6 115.047 8.64667 115.141 8.74C115.247 8.83333 115.301 8.95333 115.301 9.1V9.86C115.661 9.42 116.121 9.06667 116.681 8.8C117.254 8.53333 117.901 8.4 118.621 8.4C119.794 8.4 120.747 8.8 121.481 9.6C122.214 10.3867 122.581 11.4933 122.581 12.92V18.5C122.581 18.6333 122.534 18.7533 122.441 18.86C122.347 18.9533 122.227 19 122.081 19H119.561C119.427 19 119.307 18.9533 119.201 18.86C119.107 18.7533 119.061 18.6333 119.061 18.5V13.04C119.061 12.4133 118.907 11.9333 118.601 11.6C118.294 11.2533 117.854 11.08 117.281 11.08C116.721 11.08 116.281 11.2533 115.961 11.6C115.641 11.9333 115.481 12.4133 115.481 13.04V18.5C115.481 18.6333 115.434 18.7533 115.341 18.86C115.247 18.9533 115.127 19 114.981 19H112.481ZM125.332 19C125.199 19 125.079 18.9533 124.972 18.86C124.879 18.7533 124.832 18.6333 124.832 18.5V5.3C124.832 5.15333 124.879 5.03333 124.972 4.94C125.079 4.84667 125.199 4.8 125.332 4.8H127.652C127.799 4.8 127.919 4.84667 128.012 4.94C128.106 5.03333 128.152 5.15333 128.152 5.3V12L130.932 8.94C130.959 8.91333 131.006 8.86667 131.072 8.8C131.152 8.73333 131.232 8.68667 131.312 8.66C131.392 8.62 131.486 8.6 131.592 8.6H134.272C134.392 8.6 134.492 8.64667 134.572 8.74C134.666 8.82 134.712 8.92 134.712 9.04C134.712 9.18667 134.659 9.3 134.552 9.38L130.952 13.26L135.052 18.24C135.159 18.3467 135.212 18.4467 135.212 18.54C135.212 18.6733 135.166 18.7867 135.072 18.88C134.992 18.96 134.886 19 134.752 19H132.012C131.839 19 131.706 18.9733 131.612 18.92C131.532 18.8667 131.432 18.78 131.312 18.66L128.152 14.86V18.5C128.152 18.6333 128.106 18.7533 128.012 18.86C127.919 18.9533 127.799 19 127.652 19H125.332ZM140.597 19.2C139.517 19.2 138.61 19.0467 137.877 18.74C137.157 18.4333 136.623 18.0667 136.277 17.64C135.93 17.2133 135.757 16.8333 135.757 16.5C135.757 16.3667 135.803 16.26 135.897 16.18C136.003 16.0867 136.117 16.04 136.237 16.04H138.517C138.597 16.04 138.67 16.0733 138.737 16.14C138.897 16.2467 139.017 16.3333 139.097 16.4C139.39 16.6133 139.643 16.7733 139.857 16.88C140.083 16.9733 140.357 17.02 140.677 17.02C141.063 17.02 141.377 16.9467 141.617 16.8C141.87 16.64 141.997 16.42 141.997 16.14C141.997 15.9133 141.93 15.7333 141.797 15.6C141.677 15.4667 141.437 15.34 141.077 15.22C140.717 15.0867 140.17 14.9467 139.437 14.8C138.33 14.5733 137.477 14.2067 136.877 13.7C136.29 13.18 135.997 12.4867 135.997 11.62C135.997 11.0733 136.17 10.5533 136.517 10.06C136.863 9.56667 137.377 9.16667 138.057 8.86C138.75 8.55333 139.57 8.4 140.517 8.4C141.463 8.4 142.29 8.54667 142.997 8.84C143.703 9.13333 144.237 9.49333 144.597 9.92C144.97 10.3333 145.157 10.7133 145.157 11.06C145.157 11.18 145.11 11.2867 145.017 11.38C144.937 11.4733 144.837 11.52 144.717 11.52H142.637C142.53 11.52 142.43 11.4867 142.337 11.42C142.163 11.3267 142.01 11.2267 141.877 11.12C141.65 10.9467 141.437 10.8133 141.237 10.72C141.037 10.6267 140.79 10.58 140.497 10.58C140.15 10.58 139.87 10.66 139.657 10.82C139.457 10.98 139.357 11.1867 139.357 11.44C139.357 11.64 139.41 11.8067 139.517 11.94C139.637 12.0733 139.877 12.2067 140.237 12.34C140.61 12.46 141.157 12.5867 141.877 12.72C143.17 12.9467 144.11 13.3467 144.697 13.92C145.297 14.4933 145.597 15.1667 145.597 15.94C145.597 16.9267 145.157 17.72 144.277 18.32C143.397 18.9067 142.17 19.2 140.597 19.2Z" fill="#21B6B7"/>
</svg>
